{"title":"Red.Riding.Hood.2011.TS.x264.Feel-Free","uid":6257429,"size":753297400,"categoryP":"video","categoryS":"movies","magnet":"?xt=urn:btih:f5b9da230e6b7dfffa34310c7735c20d8ad1c5c1&amp;dn=Red.Riding.Hood.2011.TS.x264.Feel-Free&amp;tr=udp%3A%2F%2Ftracker.openbittorrent.com%3A80&amp;tr=udp%3A%2F%2Fopen.demonii.com%3A1337&amp;tr=udp%3A%2F%2Ftracker.coppersurfer.tk%3A6969&amp;tr=udp%3A%2F%2Fexodus.desync.com%3A6969","seeders":2,"leechers":0,"uploader":"qwersd","files":9,"time":1300630592,"description":"Genre:Fantasy | Horror | Mystery \nLanguage:English\nIMDb:http://www.imdb.com/title/tt1486185/\nSource:Relizlab/Imagine Thx.\n\nFormat : MPEG-4\nFormat profile : Base Media\nCodec ID : isom\nFile size : 717 MiB\nDuration : 1h 35mn\nOverall bit rate : 1 054 Kbps\nMovie name : Red.Riding.Hood.2011.TS.x264.Feel-Free\n\nVideo\nFormat settings, CABAC : Yes\nFormat settings, ReFrames : 4 frames\nFormat settings, GOP : N=1\nCodec ID : avc1\nCodec ID/Info : Advanced Video Coding\nDuration : 1h 35mn\nBit rate mode : Variable\nBit rate : 897 Kbps\nWidth : 720 pixels\nHeight : 304 pixels\nDisplay aspect ratio : 2.35:1\nFrame rate mode : Constant\nFrame rate : 25.000 fps\nColor space : YUV\nChroma subsampling : 4:2:0\nBit depth : 8 bits\nScan type : Progressive\nBits/(Pixel*Frame) : 0.164\nStream size : 610 MiB (85%)\nWriting library : x264\n\nAudio\nID : 2\nFormat : AAC\nFormat/Info : Advanced Audio Codec\nFormat version : Version 4\nFormat profile : LC\nCodec ID : 40\nDuration : 1h 35mn\nBit rate mode : Variable\nBit rate : 152 Kbps\nChannel(s) : 2 channels\nChannel positions : Front: L R\nSampling rate : 44.1 KHz\nStream size : 103 MiB (14%)\n\n\nPlot:\nSet in a medieval village that is haunted by a werewolf, a young girl falls for an orphaned woodcutter, much to her family's displeasure. \n &lt;a href=&quot;\nhttp://www.pix2links.com/images/55343627471201265371.png&quot; rel=&quot;nofollow&quot; target=&quot;_NEW&quot;&gt;\nhttp://www.pix2links.com/images/55343627471201265371.png&lt;/a&gt; &lt;a href=&quot;\nhttp://www.pix2links.com/images/02030811282745086097.png&quot; rel=&quot;nofollow&quot; target=&quot;_NEW&quot;&gt;\nhttp://www.pix2links.com/images/02030811282745086097.png&lt;/a&gt; &lt;a href=&quot;\nhttp://www.pix2links.com/images/34685885208022853558.png&quot; rel=&quot;nofollow&quot; target=&quot;_NEW&quot;&gt;\nhttp://www.pix2links.com/images/34685885208022853558.png&lt;/a&gt; &lt;a href=&quot;\nhttp://www.pix2links.com/images/09460677703993539311.png&quot; rel=&quot;nofollow&quot; target=&quot;_NEW&quot;&gt;\nhttp://www.pix2links.com/images/09460677703993539311.png&lt;/a&gt; &lt;a href=&quot;\nhttp://www.pix2links.com/images/23894291750659340445.png&quot; rel=&quot;nofollow&quot; target=&quot;_NEW&quot;&gt;\nhttp://www.pix2links.com/images/23894291750659340445.png&lt;/a&gt;\n\nGreets:\n\nINK,CRYS,IMAGINE,LKRG,FXG,3Li,FLAWL3SS,TA,iLLUSiON,ViSiON,DTRG SAFCuk009,LU,TheFalcon007,MYSTiC,PrisM,Noir,WBZ,LAP,Rx,Kingdom,SAFCuk009+Fabreezy,HDLiTE,TWiZTED,ExtraTorrentRG.ELEKTRI4KA,MAGNAT,CM8\nAnd to all the other p2p grps past and present ","torrent":{"xt":"urn:btih:f5b9da230e6b7dfffa34310c7735c20d8ad1c5c1","amp;dn":"Red.Riding.Hood.2011.TS.x264.Feel-Free","amp;tr":["udp%3A%2F%2Ftracker.openbittorrent.com%3A80","udp%3A%2F%2Fopen.demonii.com%3A1337","udp%3A%2F%2Ftracker.coppersurfer.tk%3A6969","udp%3A%2F%2Fexodus.desync.com%3A6969"],"infoHash":"f5b9da230e6b7dfffa34310c7735c20d8ad1c5c1","infoHashBuffer":{"type":"Buffer","data":[245,185,218,35,14,107,125,255,250,52,49,12,119,53,194,13,138,209,197,193]},"announce":[],"urlList":[]}}